# xmcd
#
# Track frame offsets: 
#        150
#        15978
#        30825
#        48597
#        63850
#        80048
#        93089
#        108381
#        123449
#        136259
#        150654
#        165957
#        179448
#        192042
#        206436
#        218132
#        231627
#
# Disc length: 3287 seconds
#
# Revision: 0
# Processed by: cddbd v1.5.2PL0 Copyright (c) Steve Scherf et al.
# Submitted via: ExactAudioCopy v0.95b4
#
DISCID=d50cd511
DTITLE=김태정 - 사랑을 위하여 2
DYEAR=1991
DGENRE=Ballad
TTITLE0=백만송이 장미
TTITLE1=사랑의 눈동자
TTITLE2=내마음의 보석상자
TTITLE3=무궁화
TTITLE4=문 밖의 그대
TTITLE5=사랑 밖엔 난 몰라
TTITLE6=가을 사랑
TTITLE7=애정의 조건
TTITLE8=장난감 병정
TTITLE9=홀로 가는 길
TTITLE10=꼬마인형
TTITLE11=흔적
TTITLE12=초연
TTITLE13=첫사랑의 눈물
TTITLE14=마지막 포옹
TTITLE15=모두가 사랑이예요
TTITLE16=사랑이예요
EXTD=
EXTT0=
EXTT1=
EXTT2=
EXTT3=
EXTT4=
EXTT5=
EXTT6=
EXTT7=
EXTT8=
EXTT9=
EXTT10=
EXTT11=
EXTT12=
EXTT13=
EXTT14=
EXTT15=
EXTT16=
PLAYORDER=
